<?xml version="1.0" encoding="UTF-8"?>
<svg width="192" height="192" viewBox="0 0 192 192" fill="none" xmlns="http://www.w3.org/2000/svg">
  <defs>
    <linearGradient id="lg-brand" x1="0" y1="0" x2="1" y2="1">
      <stop offset="0" stop-color="oklch(0.78 0.16 240)"/>
      <stop offset="1" stop-color="oklch(0.77 0.15 322)"/>
    </linearGradient>
    <radialGradient id="halo-top" cx="80%" cy="0%" r="85%">
      <stop offset="0" stop-color="oklch(0.4 0.13 280 / 0.65)"/>
      <stop offset="1" stop-color="oklch(0.4 0.13 280 / 0)"/>
    </radialGradient>
    <radialGradient id="halo-bottom" cx="10%" cy="100%" r="80%">
      <stop offset="0" stop-color="oklch(0.36 0.12 330 / 0.5)"/>
      <stop offset="1" stop-color="oklch(0.36 0.12 330 / 0)"/>
    </radialGradient>
  </defs>

  <rect width="192" height="192" rx="52" fill="#0b0d14"/>
  <rect width="192" height="192" rx="52" fill="url(#halo-bottom)"/>
  <rect width="192" height="192" rx="52" fill="url(#halo-top)"/>
  <rect x="0.5" y="0.5" width="191" height="191" rx="51.5" stroke="rgba(255,255,255,0.09)"/>

  <!-- cardioid + bulbs mark -->
  <g transform="translate(44.8 44.8) scale(1.8963)">
    <path d="M38 27c0-2.8-1.6-5.2-4.2-6 1-1.1 1.6-2.6 1.6-4.2 0-3.5-2.8-6.3-6.3-6.3-4.6 0-7 3.6-7.6 6.8-4.7.8-9.5 4.4-9.5 10.7 0 6.2 4.8 9.9 9.5 10.7.6 3.2 3 6.8 7.6 6.8 3.5 0 6.3-2.8 6.3-6.3 0-1.6-.6-3.1-1.6-4.2 2.6-.8 4.2-3.2 4.2-6z"
      fill="none" stroke="url(#lg-brand)" stroke-width="2.4" stroke-linejoin="round"/>
    <circle cx="42.5" cy="27" r="3.4" fill="url(#lg-brand)"/>
    <circle cx="48.5" cy="27" r="1.6" fill="url(#lg-brand)" opacity="0.7"/>
  </g>
</svg>
